<svg xmlns="http://www.w3.org/2000/svg" viewBox="0 0 32 32" shape-rendering="crispEdges">
  <rect width="32" height="32" fill="#070713"/>
  <rect x="16" y="2" width="10" height="2" fill="#a84429"/>
  <rect x="13" y="4" width="16" height="2" fill="#a84429"/>
  <rect x="11" y="6" width="19" height="8" fill="#b95132"/>
  <rect x="10" y="9" width="21" height="5" fill="#b95132"/>
  <rect x="21" y="5" width="3" height="3" fill="#7b3027"/>
  <rect x="27" y="9" width="2" height="2" fill="#7b3027"/>
  <rect x="6" y="12" width="14" height="2" fill="#25213d"/>
  <rect x="5" y="14" width="2" height="2" fill="#25213d"/>
  <rect x="4" y="16" width="2" height="6" fill="#393450"/>
  <rect x="7" y="14" width="2" height="2" fill="#393450"/>
  <rect x="6" y="16" width="2" height="6" fill="#25213d"/>
  <rect x="8" y="14" width="10" height="2" fill="#393450"/>
  <rect x="18" y="14" width="2" height="8" fill="#393450"/>
  <rect x="0" y="21" width="32" height="11" fill="#332c66"/>
  <rect x="0" y="21" width="6" height="1" fill="#8174bd"/>
  <rect x="8" y="20" width="5" height="2" fill="#8174bd"/>
  <rect x="16" y="21" width="8" height="1" fill="#8174bd"/>
  <rect x="26" y="20" width="6" height="2" fill="#8174bd"/>
  <rect x="12" y="25" width="2" height="2" fill="#62c9da"/>
  <rect x="11" y="27" width="1" height="3" fill="#62c9da"/>
  <rect x="14" y="27" width="1" height="4" fill="#62c9da"/>
  <rect x="16" y="26" width="1" height="1" fill="#ffc35a"/>
</svg>
